<svg xmlns="http://www.w3.org/2000/svg" width="32" height="32" viewBox="0 0 1024 1024"><path fill="#979696" d="M512 1024C229.233 1024 0 794.767 0 512S229.233 0 512 0s512 229.233 512 512-229.233 512-512 512zm-51.2-245.76c175.309 0 316.068-91.689 316.068-204.8 0-95.56-119.665-95.56-119.665-101.724s59.597-61.686 0-96.215c-59.597-34.55-168.57 17.981-165.294 12.329 46.879-80.63-20.132-106.087-54.272-106.087-81.408 0-294.277 178.586-294.277 291.697s142.131 204.8 317.44 204.8zm8.294-62.73c-112.005 15.749-211.107-30.515-221.327-103.322s72.274-144.589 184.28-160.317c112.004-15.75 211.107 30.515 221.326 103.321S581.1 699.782 469.094 715.51zm-20.705-19.845c66.622-12.944 111.882-68.445 101.09-123.966s-73.544-90.03-140.166-77.066c-66.621 12.943-111.882 68.444-101.089 123.965s73.544 90.03 140.165 77.067zm2.171-101.745c-11.305 0-20.48-9.175-20.48-20.48s9.175-20.48 20.48-20.48 20.48 9.175 20.48 20.48-9.175 20.48-20.48 20.48zm-47.227 46.715c-20.5 9.564-42.926 4.854-50.114-10.527s3.645-35.594 24.145-45.158c20.501-9.564 42.927-4.854 50.115 10.526s-3.645 35.595-24.146 45.159zm331.592-314.491c-37.008-33.3-79.75-21.627-79.75-21.627-11.202 1.475-20.295 11.879-20.295 23.04v-5.714c0 11.244 9.011 19.763 20.357 19.661 0 0 35.287-5.489 55.01 17.961s5.652 55.644 5.652 55.644c-3.113 10.834 3.502 19.6 14.93 19.6h2.027c11.367 0 22.344-8.95 23.941-20.173 0 0 15.135-55.092-21.872-88.392zm69.079-66.601c-67.85-64.143-158.945-54.948-158.945-54.948-16.937.123-30.659 14.029-30.659 30.782v-6.41c0 16.875 13.926 29.88 30.577 29.9 0 0 87.49-10.096 128.204 48.333s24.003 123.023 24.003 123.023c-2.355 16.794 9.441 30.393 26.358 30.393h-6.984c16.917 0 32.522-13.579 34.058-30.352 0 0 21.238-106.578-46.612-170.721z"/></svg>