<svg xmlns="http://www.w3.org/2000/svg" width="32" height="32" viewBox="0 0 1024 1024"><path fill="#979696" d="M332.915 374.926h326.004v135.835H332.915V374.926zM510.735 0C228.664 0-.002 228.692-.002 510.762s228.664 510.735 510.735 510.735c282.07 0 510.735-228.665 510.735-510.735S792.804 0 510.734 0zM224.246 184.757h570.508v54.335H224.247v-54.335zM740.42 320.592v244.502H251.414V320.592H740.42zm54.333 461.84H197.08v-54.335h186.468c-16.263-54.334-37.46-75.903-63.792-115.353l63.792-22.79c25.323 37.461 47.901 83.81 67.892 138.143h120.686c23.904-54.334 44.89-91.106 62.943-140.637l69.352 27.777c-18.123 41.785-37.715 58.527-58.448 112.86h148.782v54.334z"/></svg>