<svg xmlns="http://www.w3.org/2000/svg">
  <symbol id="qingting" viewBox="0 0 37 38">
    <g transform="translate(5.5, 0) rotate(30)">
      <path d="M20.0011898,11.0689366 C23.272068,11.5991978 26.9690652,10.8902239 30.2487252,8.82945896 C33.6783003,6.67455224 35.9462323,3.48475746 36.7614164,0.177425373 C33.4905949,-0.352779851 29.7935977,0.35619403 26.513881,2.41690299 C23.0843059,4.5718097 20.8164306,7.76166045 20.0011898,11.0689366"></path>
      <path d="M20.0019263,11.0787313 C22.6433994,13.0567724 26.2475921,14.135597 30.1218697,13.8266418 C34.1732578,13.5035821 37.6866856,11.7294403 39.9711615,9.1811194 C37.3296884,7.20313433 33.7254958,6.1243097 29.8512181,6.43326493 C25.79983,6.75632463 22.2864023,8.53046642 20.0019263,11.0787313"></path>
      <path d="M20.0011898,11.0642351 C16.7303683,11.5944963 13.0333711,10.8855224 9.75371105,8.82475746 C6.32413598,6.66985075 4.05626062,3.48005597 3.24101983,0.172723881 C6.51189802,-0.357537313 10.2088385,0.351492537 13.4885552,2.41220149 C16.9181303,4.56710821 19.1860057,7.75695896 20.0011898,11.0642351"></path>
      <path d="M20.0005099,11.0740299 C17.3590368,13.0520709 13.7548442,14.1308955 9.88056657,13.8219403 C5.82923513,13.4988806 2.31575071,11.7247388 0.0312747875,9.17647388 C2.67280453,7.19843284 6.27694051,6.11960821 10.1512181,6.42856343 C14.2026062,6.75162313 17.716034,8.52576493 20.0005099,11.0740299"></path>
      <path d="M20.0005099,4.125 C19.2212465,5.44639925 18.6387535,10.7322201 18.6387535,17.0519776 C18.6387535,23.371847 19.2212465,28.6576119 20.0005099,29.9790112 C20.7797167,28.6576119 21.3622096,23.371847 21.3622096,17.0519776 C21.3622096,10.7322201 20.7797167,5.44639925 20.0005099,4.125"></path>
      <path d="M21.7001133,5.53679104 C21.7001133,6.46410448 20.9392068,7.21583955 20.0005099,7.21583955 C19.061813,7.21583955 18.3008499,6.46410448 18.3008499,5.53679104 C18.3008499,4.60953358 19.061813,3.85779851 20.0005099,3.85779851 C20.9392068,3.85779851 21.7001133,4.60953358 21.7001133,5.53679104"></path>
    </g>
  </symbol>

   <symbol id="macaca" viewBox="0 0 420 340">
    <path d="M215,27.73l0,0.15,0.17-.09,0.65,0.32s0-.27.08-0.71c2.8-1.46,11.61-6,18.85-9.18a61.68,61.68,0,0,1,13.52-4.41,63.41,63.41,0,0,1,12.9-1.49,154.83,154.83,0,0,1,20.38,1.49,17,17,0,0,0-2.79-3.68A40,40,0,0,0,268,2.83c-6.32-3.13-23.2-3.24-31.64,0a31.7,31.7,0,0,0-7.1,3.49,35.14,35.14,0,0,0-7.75,7.5,41.74,41.74,0,0,0-3.47,5.8,48.44,48.44,0,0,0-2.24,5.52c0-.06,0-0.12,0-0.19a9.64,9.64,0,0,0-.78-2.38,11.77,11.77,0,0,0-2.91-3.48,17.88,17.88,0,0,0-3.38-2c-4.21-2.13-12.92-3.92-17.26-3.64a53.37,53.37,0,0,0-11.29,1.82s12.24,2.73,18.69,5.06C202.8,21.7,212.26,26.35,215,27.73Z" transform="translate(-0.5 0.06)"/>
    <path d="M419,128.58a49.89,49.89,0,0,0-72.43-44.52A159.63,159.63,0,0,0,323,65.36c-29.9-19.69-70-36-111.87-36-40.14,0-70.28,9.49-99.61,27.61A174.1,174.1,0,0,0,76.24,85.59a49.91,49.91,0,1,0-37.75,91.34c0,0.53,0,1.05,0,1.58,0,95.5,77.33,158.33,172.72,158.33S383.89,274,383.89,178.5c0-.76,0-1.5,0-2.25A49.92,49.92,0,0,0,419,128.58ZM313.2,287c-12.69,6.67-26,13.74-42.42,18-24.46,6.31-51.76,8.21-61.23,8.21-12.18,0-38.55-2.69-60.51-8.21-17-4.27-29.29-10.21-42.78-18-27.52-15.85-35.59-46.38-35.59-51,0-6.49-.92-13.08,0-18.37,3.16-18.15,12.9-29,24.67-37.76a70.24,70.24,0,0,1,9.22-5.77,68.75,68.75,0,0,1-7.29-30.86c0-38.91,32.33-70.45,72.21-70.45a73.14,73.14,0,0,1,39.92,11.75A73.14,73.14,0,0,1,249.33,72.8c39.88,0,72.21,31.54,72.21,70.45A68.74,68.74,0,0,1,314.77,173c1.88,0.95,3.71,1.95,5.47,3,18.06,11.05,29.49,28.55,29.49,60C349.73,241.83,344.52,270.57,313.2,287Z" transform="translate(-0.5 0.06)"/>
    <circle cx="251.77" cy="142.14" r="14.09"/>
    <circle cx="154.31" cy="142.14" r="14.09"/>
  </symbol>

  <symbol id="copy" viewBox="-120 -30 1050 1050">
      <path d="M128 768h256v64H128v-64z m320-384H128v64h320v-64z m128 192V448L384 640l192 192V704h320V576H576z m-288-64H128v64h160v-64zM128 704h160v-64H128v64z m576 64h64v128c-1 18-7 33-19 45s-27 18-45 19H64c-35 0-64-29-64-64V192c0-35 29-64 64-64h192C256 57 313 0 384 0s128 57 128 128h192c35 0 64 29 64 64v320h-64V320H64v576h640V768zM128 256h512c0-35-29-64-64-64h-64c-35 0-64-29-64-64s-29-64-64-64-64 29-64 64-29 64-64 64h-64c-35 0-64 29-64 64z" />
  </symbol>

  <symbol id="qrcode" viewBox="0 0 800 960">
    <path d="M219.429 658.286v73.143h-73.143v-73.143h73.143zM219.429 219.429v73.143h-73.143v-73.143h73.143zM658.286 219.429v73.143h-73.143v-73.143h73.143zM73.143 804h219.429v-218.857h-219.429v218.857zM73.143 365.714h219.429v-219.429h-219.429v219.429zM512 365.714h219.429v-219.429h-219.429v219.429zM365.714 512v365.714h-365.714v-365.714h365.714zM658.286 804.571v73.143h-73.143v-73.143h73.143zM804.571 804.571v73.143h-73.143v-73.143h73.143zM804.571 512v219.429h-219.429v-73.143h-73.143v219.429h-73.143v-365.714h219.429v73.143h73.143v-73.143h73.143zM365.714 73.143v365.714h-365.714v-365.714h365.714zM804.571 73.143v365.714h-365.714v-365.714h365.714z"></path>
  </symbol>

  <symbol id="home" viewBox="0 20 950 950">
    <path d="M804.571 566.857v274.286q0 14.857-10.857 25.714t-25.714 10.857h-219.429v-219.429h-146.286v219.429h-219.429q-14.857 0-25.714-10.857t-10.857-25.714v-274.286q0-0.571 0.286-1.714t0.286-1.714l328.571-270.857 328.571 270.857q0.571 1.143 0.571 3.429zM932 527.429l-35.429 42.286q-4.571 5.143-12 6.286h-1.714q-7.429 0-12-4l-395.429-329.714-395.429 329.714q-6.857 4.571-13.714 4-7.429-1.143-12-6.286l-35.429-42.286q-4.571-5.714-4-13.429t6.286-12.286l410.857-342.286q18.286-14.857 43.429-14.857t43.429 14.857l139.429 116.571v-111.429q0-8 5.143-13.143t13.143-5.143h109.714q8 0 13.143 5.143t5.143 13.143v233.143l125.143 104q5.714 4.571 6.286 12.286t-4 13.429z"></path>
  </symbol>

  <symbol id="print" viewBox="0 0 951 1024">
    <path d="M219.429 877.714h512v-146.286h-512v146.286zM219.429 512h512v-219.429h-91.429q-22.857 0-38.857-16t-16-38.857v-91.429h-365.714v365.714zM877.714 548.571q0-14.857-10.857-25.714t-25.714-10.857-25.714 10.857-10.857 25.714 10.857 25.714 25.714 10.857 25.714-10.857 10.857-25.714zM950.857 548.571v237.714q0 7.429-5.429 12.857t-12.857 5.429h-128v91.429q0 22.857-16 38.857t-38.857 16h-548.571q-22.857 0-38.857-16t-16-38.857v-91.429h-128q-7.429 0-12.857-5.429t-5.429-12.857v-237.714q0-45.143 32.286-77.429t77.429-32.286h36.571v-310.857q0-22.857 16-38.857t38.857-16h384q22.857 0 50.286 11.429t43.429 27.429l86.857 86.857q16 16 27.429 43.429t11.429 50.286v146.286h36.571q45.143 0 77.429 32.286t32.286 77.429z"></path>
  </symbol>

  <symbol id="box" viewBox="0 0 1024 1024">
    <path d="M64.16 730.4l417.248 197.408v-441.6l-417.248-176.64v420.832zM192.192 473.312l160.832 74.784-0.928 58.944-160.8-74.752 0.896-58.976zM512 486.208v441.6l415.808-197.408v-420.832l-415.808 176.64zM494.496 96.192l-427.616 184.224 428 182.784 432.448-183.2-432.832-183.808z"></path>
  </symbol>

  <symbol id="doc" viewBox="0 -30 1100 1100">
    <path d="M704 128h-128v-64c0-35.2-28.8-64-64-64h-128c-35.204 0-64 28.8-64 64v64h-128v128h512v-128zM512 128h-128v-63.886c0.034-0.038 0.072-0.078 0.114-0.114h127.768c0.042 0.036 0.082 0.076 0.118 0.114v63.886zM832 320v-160c0-17.6-14.4-32-32-32h-64v64h32v128h-192l-192 192v256h-256v-576h32v-64h-64c-17.602 0-32 14.4-32 32v640c0 17.6 14.398 32 32 32h288v192h640v-704h-192zM576 410.51v101.49h-101.49l101.49-101.49zM960 960h-512v-384h192v-192h320v576z"></path>
  </symbol>
  <symbol id="upload" viewBox="0 0 1024 1024">
    <path d="M738.3 290.3 512 64 285.7 290.3 331 335.5 480 186.5 480 768 544 768 544 186.5 693 335.5Z" />
    <path d="M896 640 896 896 128 896 128 640 64 640 64 960 960 960 960 640Z" />

  </symbol>

  <symbol id="angle-right" viewBox="0 0 347 1024">
    <path d="M340 548.571q0 7.429-5.714 13.143l-266.286 266.286q-5.714 5.714-13.143 5.714t-13.143-5.714l-28.571-28.571q-5.714-5.714-5.714-13.143t5.714-13.143l224.571-224.571-224.571-224.571q-5.714-5.714-5.714-13.143t5.714-13.143l28.571-28.571q5.714-5.714 13.143-5.714t13.143 5.714l266.286 266.286q5.714 5.714 5.714 13.143z"></path>
  </symbol>
  <symbol id="film" viewBox="0 0 1024 1024">
    <path class="path1" d="M768 544c-35.36 0-64 28.64-64 64v128h-160v-448h352v256h-128zM608 320h-32v64h32v-64zM608 640h-32v64h32v-64zM672 320h-32v64h32v-64zM672 640h-32v64h32v-64zM736 320h-32v64h32v-64zM800 320h-32v64h32v-64zM864 320h-32v64h32v-64zM128 192h416v64h-416v-64zM512 288v448h-352v-448h352zM544 832h-416v-64h416v64z"></path>
  </symbol>
</svg>
